<svg width="36" height="37" viewBox="0 0 36 37" fill="none" xmlns="http://www.w3.org/2000/svg">
<path fill-rule="evenodd" clip-rule="evenodd" d="M17.3749 3.68222C17.4674 4.02895 17.6246 4.94923 17.5136 5.85651C17.3749 7.58231 16.6014 9.89983 16.1823 10.6395C15.7385 11.7243 14.6537 13.9432 11.2514 16.2607C7.87376 18.4796 7.03084 21.8607 8.5451 25.9557C7.90088 25.648 7.19682 24.4614 6.92532 23.9066C6.51807 25.0929 5.50879 30.7236 14.5214 33.8046L14.4876 33.7722L14.4866 33.7713C13.6111 32.9356 10.1897 29.67 13.2111 23.9066C13.696 22.846 15.9441 20.1388 16.8601 19.0357C17.0146 18.8497 17.1312 18.7092 17.1951 18.63C17.2362 18.579 17.3099 18.4932 17.4097 18.3769C18.3841 17.2417 21.847 13.2072 21.7988 10.3965C21.7457 7.29784 18.0505 3.90893 17.3749 3.68222ZM8.58409 25.4968C8.27863 24.2786 8.34018 21.0342 11.03 17.8021C11.4075 17.3011 12.2403 16.4627 12.6095 16.1062C13.057 15.6839 14.0159 14.6769 14.2708 14.0275C13.0682 15.2221 12.1791 15.8655 11.4364 16.403C10.8867 16.8007 10.4171 17.1406 9.9598 17.6029C7.38832 20.2028 7.93834 23.9277 8.58409 25.4968Z" fill="url(#paint0_linear_531_17)"/>
<path fill-rule="evenodd" clip-rule="evenodd" d="M21.7781 34.3215C23.9083 34.0199 25.8391 32.3264 26.5382 31.5173C28.1484 29.9935 30.9919 26.0032 29.4837 22.2329C28.2961 19.424 25.6934 17.6173 24.5405 17.065C24.4238 17.5655 24.0473 18.5384 23.4747 18.4264C22.8131 18.297 22.7897 17.0906 22.7715 16.153L22.7715 16.1524C22.77 16.076 22.7685 16.0013 22.7668 15.9292C22.7668 15.8782 22.7698 15.7833 22.7738 15.6591L22.7738 15.6588C22.7923 15.0845 22.8308 13.8841 22.6813 13.5007C22.5367 13.8272 21.7637 14.9685 20.5878 16.134C19.4119 17.2995 17.3202 19.5368 16.5814 20.4942C15.6968 21.4516 13.9277 23.7618 13.064 25.8847C12.2151 27.9712 12.3513 29.1228 12.4155 29.6656L12.4188 29.6934C12.4812 30.2241 12.9079 32.295 14.4792 33.6478C14.4351 33.5178 14.3752 33.369 14.3084 33.2033C13.8248 32.0024 12.983 29.9125 15.1869 27.6538C15.395 28.4863 16.2795 29.0898 16.5709 29.1731C16.5666 29.1247 16.5586 29.061 16.5489 28.9831L16.5489 28.983C16.4413 28.1224 16.1185 25.5412 18.1319 23.0125C18.1306 23.0211 18.1294 23.03 18.128 23.0393C18.0603 23.5075 17.8489 24.9707 19.3182 27.1543C19.5614 27.5421 19.8546 27.898 20.1557 28.2634C21.2198 29.555 22.3816 30.9651 21.7781 34.3215ZM22.5929 16.5158C22.4387 17.0544 22.1924 18.2455 22.4412 18.7006C22.5398 18.8903 23.1619 19.2089 23.8219 18.5869L23.7815 18.585C23.3141 18.564 23.0568 18.5524 22.8281 17.8737C22.64 17.2972 22.5929 16.7282 22.5929 16.5158ZM26.8099 31.0492C28.5606 28.493 30.8239 22.3262 25.8713 18.1085C26.8898 18.7006 33.342 23.5546 26.8099 31.0492ZM19.0081 22.0907C18.7917 22.8058 18.8331 24.8003 20.7298 27.0583C22.4412 29.3163 23.383 31.1791 22.0564 33.8604C22.1975 32.421 22.3387 30.6993 20.4476 28.3002C19.4315 27.0583 16.976 23.502 19.0081 22.0907Z" fill="#F83E27"/>
<path d="M9.6466 7.97282C9.62805 7.93313 9.57163 7.93312 9.55308 7.97282L9.24897 8.62447C9.24859 8.62527 9.24821 8.62607 9.24784 8.62688C9.20952 8.70752 9.1445 8.77245 9.06381 8.81067C9.06316 8.81097 9.0625 8.81128 9.06185 8.81159L8.41019 9.11571C8.37051 9.13424 8.37051 9.19068 8.41019 9.20921L9.06185 9.51334C9.0625 9.51364 9.06316 9.51395 9.06381 9.51426C9.14455 9.5525 9.2096 9.61749 9.24791 9.69821C9.24826 9.69895 9.24862 9.69971 9.24897 9.70046L9.55308 10.3521C9.57163 10.3918 9.62805 10.3918 9.6466 10.3521L9.95071 9.70046C9.95106 9.69971 9.95141 9.69895 9.95177 9.69821C9.99008 9.61749 10.0551 9.5525 10.1359 9.51426C10.1365 9.51395 10.1372 9.51364 10.1378 9.51334L10.7895 9.20921C10.8292 9.19068 10.8292 9.13424 10.7895 9.11571L10.1378 8.81159C10.1372 8.81128 10.1365 8.81097 10.1359 8.81067C10.0552 8.77244 9.99013 8.70748 9.95182 8.6268C9.95144 8.62602 9.95106 8.62525 9.95071 8.62447L9.6466 7.97282Z" fill="#FF7CB6"/>
<path d="M25.0631 10.8359C25.0516 10.8112 25.0166 10.8112 25.0051 10.8359L24.8163 11.2403C24.8161 11.2408 24.8159 11.2413 24.8156 11.2418C24.7919 11.2918 24.7515 11.3321 24.7014 11.3558C24.701 11.356 24.7006 11.3562 24.7002 11.3564L24.2958 11.5451C24.2712 11.5566 24.2712 11.5916 24.2958 11.6031L24.7002 11.7918C24.7006 11.792 24.701 11.7922 24.7014 11.7924C24.7515 11.8161 24.7919 11.8565 24.8157 11.9066C24.8159 11.907 24.8161 11.9075 24.8163 11.908L25.0051 12.3123C25.0166 12.337 25.0516 12.337 25.0631 12.3123L25.2518 11.908C25.252 11.9075 25.2522 11.907 25.2525 11.9066C25.2762 11.8565 25.3166 11.8161 25.3667 11.7924C25.3671 11.7922 25.3675 11.792 25.3679 11.7918L25.7723 11.6031C25.7969 11.5916 25.7969 11.5566 25.7723 11.5451L25.3679 11.3564C25.3675 11.3562 25.3671 11.356 25.3667 11.3558C25.3166 11.3321 25.2763 11.2918 25.2525 11.2417C25.2522 11.2412 25.252 11.2407 25.2518 11.2403L25.0631 10.8359Z" fill="#FF7CB6"/>
<path d="M14.1668 2.96874C14.1586 2.95118 14.1337 2.95118 14.1255 2.96874L13.991 3.25695C13.9908 3.25731 13.9906 3.25766 13.9905 3.25802C13.9735 3.29369 13.9448 3.32241 13.9091 3.33931C13.9088 3.33944 13.9085 3.33958 13.9082 3.33972L13.62 3.47423C13.6024 3.48242 13.6024 3.50739 13.62 3.51558L13.9082 3.6501C13.9085 3.65023 13.9088 3.65037 13.9091 3.6505C13.9448 3.66742 13.9736 3.69616 13.9905 3.73186C13.9907 3.73219 13.9908 3.73253 13.991 3.73286L14.1255 4.02108C14.1337 4.03863 14.1586 4.03863 14.1668 4.02108L14.3013 3.73286C14.3015 3.73253 14.3017 3.73219 14.3018 3.73186C14.3188 3.69616 14.3475 3.66742 14.3832 3.6505C14.3835 3.65037 14.3838 3.65023 14.3841 3.6501L14.6723 3.51558C14.6899 3.50739 14.6899 3.48242 14.6723 3.47423L14.3841 3.33972C14.3838 3.33958 14.3835 3.33944 14.3832 3.33931C14.3475 3.3224 14.3188 3.29367 14.3018 3.25799C14.3017 3.25764 14.3015 3.2573 14.3013 3.25695L14.1668 2.96874Z" fill="#FF7CB6"/>
<path d="M12.2241 12.9469C12.2241 13.1593 12.0519 13.3315 11.8395 13.3315C11.6271 13.3315 11.4549 13.1593 11.4549 12.9469C11.4549 12.7345 11.6271 12.5623 11.8395 12.5623C12.0519 12.5623 12.2241 12.7345 12.2241 12.9469Z" fill="#895BFC"/>
<path d="M26.9125 15.6575C26.9125 15.8699 26.7403 16.0421 26.5279 16.0421C26.3154 16.0421 26.1432 15.8699 26.1432 15.6575C26.1432 15.4451 26.3154 15.2729 26.5279 15.2729C26.7403 15.2729 26.9125 15.4451 26.9125 15.6575Z" fill="#895BFC"/>
<path d="M30.023 12.2746C30.023 12.4046 29.9176 12.51 29.7876 12.51C29.6576 12.51 29.5522 12.4046 29.5522 12.2746C29.5522 12.1446 29.6576 12.0392 29.7876 12.0392C29.9176 12.0392 30.023 12.1446 30.023 12.2746Z" fill="#895BFC"/>
<path d="M25.4027 4.94038C25.4027 5.07037 25.2973 5.17575 25.1673 5.17575C25.0373 5.17575 24.932 5.07037 24.932 4.94038C24.932 4.81039 25.0373 4.70501 25.1673 4.70501C25.2973 4.70501 25.4027 4.81039 25.4027 4.94038Z" fill="#895BFC"/>
<path d="M14.1689 7.19563C14.1689 7.29388 14.0893 7.37352 13.991 7.37352C13.8928 7.37352 13.8131 7.29388 13.8131 7.19563C13.8131 7.09738 13.8928 7.01774 13.991 7.01774C14.0893 7.01774 14.1689 7.09738 14.1689 7.19563Z" fill="#895BFC"/>
<path d="M6.441 15.9242C6.441 16.0522 6.33725 16.1559 6.20927 16.1559C6.08129 16.1559 5.97754 16.0522 5.97754 15.9242C5.97754 15.7962 6.08129 15.6925 6.20927 15.6925C6.33725 15.6925 6.441 15.7962 6.441 15.9242Z" fill="#895BFC"/>
<defs>
<linearGradient id="paint0_linear_531_17" x1="18.0003" y1="2.95557" x2="18.0003" y2="34.3215" gradientUnits="userSpaceOnUse">
<stop stop-color="#F54C1F"/>
<stop offset="1" stop-color="#FECC35"/>
</linearGradient>
</defs>
</svg>
