<svg width="24" height="25" viewBox="0 0 24 25" fill="none" xmlns="http://www.w3.org/2000/svg">
<path fill-rule="evenodd" clip-rule="evenodd" d="M11.5836 2.66754C11.6452 2.8987 11.75 3.51222 11.6761 4.11707C11.5836 5.2676 11.0679 6.81261 10.7885 7.3057C10.4927 8.0289 9.76948 9.50816 7.50127 11.0532C5.2495 12.5324 4.68755 14.7865 5.69706 17.5165C5.26758 17.3114 4.79821 16.5203 4.61721 16.1505C4.3457 16.9413 3.67285 20.6951 9.68128 22.7491L9.65873 22.7276L9.65805 22.7269C9.07436 22.1698 6.79345 19.9928 8.80775 16.1505C9.13098 15.4434 10.6297 13.6386 11.2404 12.9032C11.3434 12.7792 11.4211 12.6856 11.4637 12.6328C11.4912 12.5988 11.5403 12.5415 11.6068 12.464C12.2564 11.7072 14.565 9.01752 14.5329 7.14372C14.4975 5.07795 12.034 2.81868 11.5836 2.66754ZM5.72305 17.2106C5.51941 16.3985 5.56045 14.2355 7.35366 12.0808C7.60533 11.7468 8.1605 11.1879 8.40663 10.9502C8.70503 10.6686 9.34429 9.99734 9.51422 9.56442C8.71243 10.3608 8.11974 10.7897 7.62458 11.148C7.25811 11.4132 6.94506 11.6398 6.64019 11.948C4.92588 13.6813 5.29255 16.1646 5.72305 17.2106Z" fill="url(#paint0_linear_531_17)"/>
<path fill-rule="evenodd" clip-rule="evenodd" d="M14.5191 23.0937C15.9392 22.8927 17.2264 21.7636 17.6924 21.2243C18.7659 20.2084 20.6616 17.5482 19.6561 15.0346C18.8644 13.162 17.1293 11.9576 16.3607 11.5894C16.2829 11.9231 16.0318 12.5717 15.6501 12.497C15.2091 12.4107 15.1934 11.6064 15.1813 10.9814L15.1813 10.981C15.1803 10.9301 15.1793 10.8803 15.1782 10.8322C15.1782 10.7982 15.1802 10.7349 15.1829 10.6521L15.1829 10.652C15.1952 10.269 15.2209 9.46882 15.1212 9.21317C15.0248 9.43086 14.5095 10.1917 13.7255 10.9687C12.9416 11.7457 11.5471 13.2373 11.0546 13.8755C10.4649 14.5138 9.28548 16.0539 8.70967 17.4692C8.14372 18.8602 8.23453 19.6279 8.27733 19.9898L8.27952 20.0083C8.32115 20.3621 8.60558 21.7427 9.65315 22.6446C9.62371 22.5579 9.58376 22.4588 9.53927 22.3483C9.21683 21.5477 8.65569 20.1544 10.1249 18.6486C10.2637 19.2036 10.8533 19.6059 11.0476 19.6614C11.0447 19.6292 11.0394 19.5867 11.0329 19.5348L11.0329 19.5347C10.9612 18.961 10.746 17.2402 12.0882 15.5544C12.0874 15.5601 12.0866 15.5661 12.0857 15.5723C12.0406 15.8844 11.8996 16.8599 12.8791 18.3156C13.0413 18.5741 13.2368 18.8114 13.4374 19.055C14.1469 19.916 14.9214 20.8561 14.5191 23.0937ZM15.0623 11.2233C14.9595 11.5824 14.7953 12.3764 14.9611 12.6798C15.0269 12.8063 15.4416 13.0187 15.8816 12.604L15.8547 12.6027C15.5431 12.5887 15.3715 12.581 15.2191 12.1286C15.0936 11.7442 15.0623 11.3649 15.0623 11.2233ZM17.8736 20.9122C19.0407 19.2081 20.5496 15.0969 17.2479 12.2851C17.9268 12.6798 22.2283 15.9158 17.8736 20.9122ZM12.6724 14.9399C12.5282 15.4166 12.5558 16.7463 13.8202 18.2516C14.9611 19.7569 15.589 20.9988 14.7046 22.7864C14.7987 21.8267 14.8928 20.6789 13.6321 19.0795C12.9547 18.2516 11.3176 15.8807 12.6724 14.9399Z" fill="#F83E27"/>
<path d="M6.43139 5.52794C6.41903 5.50148 6.38141 5.50148 6.36905 5.52794L6.16631 5.96237C6.16605 5.96291 6.1658 5.96344 6.16555 5.96398C6.14001 6.01774 6.09666 6.06103 6.04287 6.0865C6.04243 6.08671 6.04199 6.08692 6.04156 6.08712L5.60712 6.28987C5.58067 6.30222 5.58067 6.33985 5.60712 6.3522L6.04156 6.55495C6.04199 6.55516 6.04243 6.55536 6.04287 6.55557C6.09669 6.58106 6.14006 6.62439 6.1656 6.6782C6.16584 6.6787 6.16607 6.6792 6.16631 6.6797L6.36905 7.11413C6.38141 7.14059 6.41903 7.14059 6.43139 7.11413L6.63413 6.6797C6.63437 6.6792 6.6346 6.6787 6.63484 6.6782C6.66038 6.62439 6.70374 6.58106 6.75757 6.55557C6.75801 6.55536 6.75844 6.55516 6.75888 6.55495L7.19332 6.3522C7.21977 6.33985 7.21977 6.30222 7.19332 6.28987L6.75888 6.08712C6.75844 6.08692 6.75801 6.08671 6.75757 6.0865C6.70376 6.06102 6.66042 6.01771 6.63487 5.96393C6.63462 5.96341 6.63437 5.96289 6.63413 5.96237L6.43139 5.52794Z" fill="#FF7CB6"/>
<path d="M16.709 7.43665C16.7014 7.42023 16.678 7.42023 16.6704 7.43665L16.5445 7.70623C16.5444 7.70656 16.5442 7.7069 16.5441 7.70723C16.5282 7.74059 16.5013 7.76745 16.468 7.78326C16.4677 7.78339 16.4674 7.78352 16.4671 7.78364L16.1975 7.90946C16.1811 7.91712 16.1811 7.94047 16.1975 7.94814L16.4671 8.07395C16.4674 8.07408 16.4677 8.07421 16.468 8.07433C16.5014 8.09015 16.5283 8.11704 16.5441 8.15043C16.5443 8.15074 16.5444 8.15105 16.5445 8.15136L16.6704 8.42094C16.678 8.43737 16.7014 8.43737 16.709 8.42094L16.8349 8.15136C16.835 8.15105 16.8351 8.15074 16.8353 8.15043C16.8511 8.11704 16.8781 8.09015 16.9115 8.07433C16.9117 8.07421 16.912 8.07408 16.9123 8.07395L17.1819 7.94814C17.1983 7.94047 17.1983 7.91712 17.1819 7.90946L16.9123 7.78364C16.912 7.78352 16.9117 7.78339 16.9115 7.78326C16.8781 7.76745 16.8512 7.74057 16.8353 7.7072C16.8352 7.70688 16.835 7.70655 16.8349 7.70623L16.709 7.43665Z" fill="#FF7CB6"/>
<path d="M9.44488 2.19188C9.43942 2.18018 9.42278 2.18018 9.41731 2.19188L9.32764 2.38403C9.32753 2.38427 9.32742 2.3845 9.3273 2.38474C9.31601 2.40852 9.29683 2.42767 9.27304 2.43893C9.27285 2.43902 9.27265 2.43911 9.27246 2.4392L9.08031 2.52888C9.06861 2.53434 9.06861 2.55099 9.08031 2.55645L9.27246 2.64612C9.27265 2.64621 9.27285 2.64631 9.27304 2.6464C9.29685 2.65767 9.31603 2.67684 9.32733 2.70064C9.32743 2.70086 9.32753 2.70108 9.32764 2.7013L9.41731 2.89344C9.42278 2.90515 9.43942 2.90515 9.44488 2.89344L9.53455 2.7013C9.53466 2.70108 9.53476 2.70086 9.53487 2.70064C9.54616 2.67684 9.56534 2.65767 9.58915 2.6464C9.58934 2.64631 9.58954 2.64621 9.58973 2.64612L9.78188 2.55645C9.79358 2.55099 9.79358 2.53434 9.78188 2.52888L9.58973 2.4392C9.58954 2.43911 9.58934 2.43902 9.58915 2.43893C9.56535 2.42766 9.54618 2.40851 9.53488 2.38472C9.53477 2.38449 9.53466 2.38426 9.53455 2.38403L9.44488 2.19188Z" fill="#FF7CB6"/>
<path d="M8.14974 8.84401C8.14974 8.98562 8.03494 9.10042 7.89332 9.10042C7.75171 9.10042 7.63691 8.98562 7.63691 8.84401C7.63691 8.70239 7.75171 8.58759 7.89332 8.58759C8.03494 8.58759 8.14974 8.70239 8.14974 8.84401Z" fill="#895BFC"/>
<path d="M17.942 10.6511C17.942 10.7927 17.8272 10.9075 17.6856 10.9075C17.544 10.9075 17.4292 10.7927 17.4292 10.6511C17.4292 10.5094 17.544 10.3946 17.6856 10.3946C17.8272 10.3946 17.942 10.5094 17.942 10.6511Z" fill="#895BFC"/>
<path d="M20.0156 8.39579C20.0156 8.48245 19.9454 8.5527 19.8587 8.5527C19.7721 8.5527 19.7018 8.48245 19.7018 8.39579C19.7018 8.30913 19.7721 8.23888 19.8587 8.23888C19.9454 8.23888 20.0156 8.30913 20.0156 8.39579Z" fill="#895BFC"/>
<path d="M16.9355 3.50631C16.9355 3.59297 16.8652 3.66323 16.7785 3.66323C16.6919 3.66323 16.6216 3.59297 16.6216 3.50631C16.6216 3.41965 16.6919 3.3494 16.7785 3.3494C16.8652 3.3494 16.9355 3.41965 16.9355 3.50631Z" fill="#895BFC"/>
<path d="M9.44628 5.00981C9.44628 5.07531 9.39318 5.12841 9.32768 5.12841C9.26218 5.12841 9.20908 5.07531 9.20908 5.00981C9.20908 4.94432 9.26218 4.89122 9.32768 4.89122C9.39318 4.89122 9.44628 4.94432 9.44628 5.00981Z" fill="#895BFC"/>
<path d="M4.29432 10.8289C4.29432 10.9142 4.22516 10.9833 4.13984 10.9833C4.05452 10.9833 3.98535 10.9142 3.98535 10.8289C3.98535 10.7435 4.05452 10.6744 4.13984 10.6744C4.22516 10.6744 4.29432 10.7435 4.29432 10.8289Z" fill="#895BFC"/>
<defs>
<linearGradient id="paint0_linear_531_17" x1="12.0005" y1="2.18311" x2="12.0005" y2="23.0937" gradientUnits="userSpaceOnUse">
<stop stop-color="#F54C1F"/>
<stop offset="1" stop-color="#FECC35"/>
</linearGradient>
</defs>
</svg>
